<svg width="28" height="30" viewBox="0 0 28 30" fill="none" xmlns="http://www.w3.org/2000/svg">
<path d="M18.7017 12.234C19.0434 11.8768 19.0434 11.2976 18.7017 10.9403C18.36 10.5831 17.806 10.5831 17.4643 10.9403L12.2497 16.392L10.5351 14.5994C10.1934 14.2422 9.63933 14.2422 9.29762 14.5994C8.95591 14.9566 8.95591 15.5358 9.29762 15.8931L11.631 18.3325C11.9727 18.6897 12.5267 18.6897 12.8684 18.3325L18.7017 12.234Z" fill="#404346"/>
<path fill-rule="evenodd" clip-rule="evenodd" d="M14.0666 1.52466H13.9327C11.2396 1.52464 9.12906 1.52463 7.48233 1.75609C5.79681 1.99301 4.46678 2.4874 3.42283 3.57879C2.37889 4.67019 1.90599 6.06067 1.67938 7.82281C1.45798 9.5444 1.45799 11.7509 1.45801 14.5664V14.7064C1.45799 17.5219 1.45798 19.7284 1.67938 21.45C1.90599 23.2121 2.37889 24.6026 3.42283 25.694C4.46678 26.7854 5.79681 27.2798 7.48233 27.5167C9.12907 27.7482 11.2396 27.7482 13.9327 27.7481H14.0666C16.7597 27.7482 18.8703 27.7482 20.517 27.5167C22.2025 27.2798 23.5326 26.7854 24.5765 25.694C25.6205 24.6026 26.0934 23.2121 26.32 21.45C26.5414 19.7284 26.5414 17.5219 26.5413 14.7064V14.5664C26.5414 11.7509 26.5414 9.5444 26.32 7.82281C26.0934 6.06067 25.6205 4.67019 24.5765 3.57879C23.5326 2.4874 22.2025 1.99301 20.517 1.75609C18.8703 1.52463 16.7597 1.52464 14.0666 1.52466ZM4.66027 4.87248C5.32487 4.17767 6.22404 3.77896 7.71551 3.56932C9.23216 3.35615 11.2251 3.3542 13.9997 3.3542C16.7743 3.3542 18.7672 3.35615 20.2838 3.56932C21.7753 3.77896 22.6745 4.17767 23.3391 4.87248C24.0037 5.56729 24.3851 6.50733 24.5856 8.0666C24.7895 9.65218 24.7913 11.7357 24.7913 14.6364C24.7913 17.5371 24.7895 19.6206 24.5856 21.2062C24.3851 22.7655 24.0037 23.7055 23.3391 24.4003C22.6745 25.0951 21.7753 25.4938 20.2838 25.7035C18.7672 25.9167 16.7743 25.9186 13.9997 25.9186C11.2251 25.9186 9.23216 25.9167 7.71551 25.7035C6.22404 25.4938 5.32487 25.0951 4.66027 24.4003C3.99567 23.7055 3.6143 22.7655 3.41377 21.2062C3.20987 19.6206 3.20801 17.5371 3.20801 14.6364C3.20801 11.7357 3.20987 9.65218 3.41377 8.0666C3.6143 6.50733 3.99567 5.56729 4.66027 4.87248Z" fill="#404346"/>
</svg>
